<svg width="200" height="200" viewBox="0 0 200 200" fill="none" xmlns="http://www.w3.org/2000/svg">
<rect width="200" height="200" fill="white"/>
<path d="M73.608 59.088C75.144 58.576 79.3253 58.0213 86.152 57.424C92.9787 56.7413 99.1653 56.4 104.712 56.4C110.344 56.4 114.696 56.656 117.768 57.168C117.853 57.5093 117.896 57.936 117.896 58.448C117.896 58.8747 117.64 59.9413 117.128 61.648C116.701 63.3547 116.36 64.464 116.104 64.976C115.421 65.6587 113.501 66.1707 110.344 66.512L134.792 137.296L146.952 138.32C146.952 140.709 146.227 143.269 144.776 146H115.336L114.952 141.52C116.915 140.496 119.773 139.6 123.528 138.832L117 120.528H81.288L75.272 137.296L85.64 138.32C85.64 140.709 84.9147 143.269 83.464 146H54.024L53.64 141.52C56.968 140.325 60.5093 139.387 64.264 138.704L89.096 66.128C81.5013 65.2747 76.168 64.2507 73.096 63.056L73.608 59.088ZM106.888 91.984L100.104 66.896C99.592 66.8107 98.8667 66.768 97.928 66.768L91.016 92.88L83.592 112.336H114.696L106.888 91.984Z" fill="black"/>
</svg>
