<?xml version="1.0" standalone="no"?>
<!DOCTYPE svg PUBLIC "-//W3C//DTD SVG 20010904//EN"
 "http://www.w3.org/TR/2001/REC-SVG-20010904/DTD/svg10.dtd">
<svg version="1.0" xmlns="http://www.w3.org/2000/svg"
 width="700.000000pt" height="700.000000pt" viewBox="0 0 700.000000 700.000000"
 preserveAspectRatio="xMidYMid meet">
<metadata>
Created by potrace 1.14, written by Peter Selinger 2001-2017
</metadata>
<g transform="translate(0.000000,700.000000) scale(0.100000,-0.100000)"
fill="#000000" stroke="none">
<path d="M1332 6985 c-208 -46 -383 -214 -437 -422 -13 -50 -15 -431 -15
-3061 0 -3337 -6 -3055 67 -3194 66 -127 200 -237 338 -281 l70 -22 2145 0
2145 0 73 24 c187 61 338 220 386 407 14 56 16 315 16 2591 l0 2528 -288 720
-288 720 -2075 2 c-1722 1 -2085 -1 -2137 -12z m3628 -3257 l0 -2103 -542 542
-543 542 -25 -18 c-59 -44 -133 -56 -350 -56 -217 0 -291 12 -350 56 l-25 18
-542 -542 -543 -542 0 2103 0 2102 1460 0 1460 0 0 -2102z"/>
</g>
</svg>
